<?xml version="1.0" encoding="utf-8"?>
<!-- Generator: Adobe Illustrator 25.0.0, SVG Export Plug-In . SVG Version: 6.00 Build 0)  -->
<svg version="1.1" id="Layer_1" xmlns="http://www.w3.org/2000/svg" xmlns:xlink="http://www.w3.org/1999/xlink" x="0px" y="0px"
	 viewBox="0 0 448.6 166" style="enable-background:new 0 0 448.6 166;" xml:space="preserve">
<style type="text/css">
	.st0{fill:#FFFFFF;}
	.st1{fill-rule:evenodd;clip-rule:evenodd;fill:#FFFFFF;}
</style>
<path class="st0" d="M0,101.2l26.7-66.6h22.2L77,101.2H61.7l-5.5-14.3H20.7l-5.5,14.3H0z M25.4,74.4h25.5l-13-31.3L25.4,74.4z"/>
<g>
	<path class="st0" d="M145.3,101.2h-18.5l-20.9-23.9H95v23.9H80.8V34.6h36.3c16.1,0,26,8.7,26,21.2c0,13.4-8.1,19.1-20.1,20.9
		L145.3,101.2z M95,47.3v17.5h18.3c7.3,0,14.9-0.9,14.9-9c0-7.7-7.1-8.6-14.7-8.6H95z"/>
	<polygon class="st0" points="168.8,101.2 168.8,47.3 143.2,47.3 143.2,34.6 208.6,34.6 208.6,47.3 183.2,47.3 183.2,101.2 	"/>
	<rect x="213.8" y="34.6" class="st0" width="14.3" height="66.6"/>
	<path class="st0" d="M238.3,91.5V75.1c6.4,9.8,14.2,14.7,31.6,14.7c14.1,0,20.2-3.7,20.2-9.8c0-4.3-2.7-7-9.7-7
		c-7.3,0-12.9,3-21.4,3c-14.5,0-22.6-8.9-22.6-19.8c0-14.3,12.1-22.9,33.5-22.9c18.8,0,26.9,6.7,29.2,9.8v14.5
		c-5.3-6.1-11.7-11.5-29.4-11.5c-12.7,0-19.5,4.1-19.5,9.9c0,4.3,2.2,7.3,10.6,7.3c7,0,12.8-3.1,20.9-3.1c15.5,0,22.5,8.6,22.5,19.1
		c0,15.5-12.4,23.2-34.6,23.2C250.3,102.6,242.6,96.5,238.3,91.5"/>
	<rect x="359.3" y="34.6" class="st0" width="14.3" height="66.6"/>
	<path class="st0" d="M381.5,68c0-18.7,12.9-34.7,38.6-34.7c18.5,0,26.3,7.2,29.2,10.4v14.6c-6.5-6.2-15-12.2-28.3-12.2
		c-15.2,0-24.7,7.6-24.7,21.6c0,14.5,10.4,22,24.8,22c14.6,0,23.4-8.3,28.2-13.7v16c-4.1,4.2-11.3,10.5-29.8,10.5
		C394.4,102.5,381.5,86.7,381.5,68"/>
	<path class="st1" d="M304.8,30.4h48.4c1.2,0,2.1-0.9,2.2-2.1L356,3.4c-0.9-0.2-2-0.4-3.1-0.4c-2.1-0.1-3.9,0.1-5.3,0.4
		c0,0-0.1,0-0.2,0.1c-0.1,0-0.1,0.1-0.1,0.2l-1.3,15.3c0,0.4-0.6,0.4-0.6,0l-1-15.3c0-0.2-0.1-0.3-0.3-0.3c-1.8-0.4-4.5-1-7.8-1.1
		c-4.3-0.1-6.7,0.6-11.2,1c-2.6,0.2-6.3,0.4-11,0c0,0-0.1,0-0.2,0.1c-0.1,0-0.1,0.1-0.1,0.2l-1,15.3c0,0.4-0.6,0.4-0.6,0l-1.3-15.3
		c0,0,0-0.1-0.1-0.2c-1-1.7-5.7-0.8-6.3-0.7c-0.5,0.1-1.4,0.3-2.3,0.6c0.2,8.3,0.4,16.6,0.6,24.9C302.7,29.5,303.7,30.4,304.8,30.4"
		/>
	<path class="st1" d="M329,80.3c2,0,3.7,1.6,3.7,3.7c0,2-1.6,3.7-3.7,3.7c-2,0-3.7-1.6-3.7-3.7C325.4,82,327,80.3,329,80.3
		 M354.4,34.6h-50.7v3c4.3,10.9,19.2-1.4,19.1,26.6c0,15.6-5.6,21.8,6.2,37.6c11.8-15.8,6.2-22.1,6.2-37.6c0-28,14.9-15.7,19.1-26.6
		V34.6z"/>
	<path class="st0" d="M303.2,125.4c-5.1,0-9,2-10.9,6.5v-5.7h-7.6v39.5h8v-17.1c2,3.7,5.7,5.5,10.5,5.5c8.7,0,13.7-6.7,13.7-14.3
		C316.8,132,311.8,125.4,303.2,125.4 M300.5,147.4c-5.1,0-8.3-3-8.3-7.7c0-4.8,3.2-7.8,8.3-7.8c5.1,0,8,3.3,8,7.8
		C308.5,144.1,305.6,147.4,300.5,147.4"/>
	<path class="st0" d="M348.1,144.5v-8.1c0-8.1-6.9-11.1-14.2-11.1c-7,0-11.1,2.7-12.7,5.1v7.1c2.4-3.2,6.5-5.7,12.4-5.7
		c4.2,0,6.4,1.8,6.4,4v0.3c-12.7,2.3-20.8,4-20.8,11c0,4.8,3.6,6.6,8.4,6.6c6.8,0,11.2-3.7,12.7-7.5v1.3c0,3.1,1.7,6.2,7.4,6.2
		c2.9,0,4.7-1,5.4-1.5v-6.5c-0.7,0.6-1.9,1.4-3.1,1.4C348.2,147.2,348.1,145.3,348.1,144.5 M331.3,148c-2.6,0-3.7-1.1-3.7-2.6
		c0-2.8,5.3-3.9,12.5-5.2C339.8,144.2,336.1,148,331.3,148"/>
	<rect x="355.5" y="113" class="st0" width="8" height="8.4"/>
	<rect x="355.5" y="126.2" class="st0" width="8" height="27"/>
	<path class="st0" d="M388.2,125.4c-5.8,0-9.3,3.5-10.6,8.1v-7.2h-7.7v27h8v-12.4c0-4.1,2.8-8.3,7.3-8.3c5.6,0,6.5,3.9,6.5,7.8v13
		h8.1v-15.8C399.7,128.9,394.8,125.4,388.2,125.4"/>
	<path class="st0" d="M429.4,132.6v-6.4h-13.3v-8.5H408v8.5h-5.8v6.4h5.8v9.7c0,3,0,11.8,11.5,11.8c5.7,0,8.7-2.3,9.9-4v-7.2
		c-2,2.7-4,4.7-7.7,4.7c-5.5,0-5.6-3.7-5.6-5.5v-9.4H429.4z"/>
	<path class="st0" d="M442.7,152.8h-5.6v-2.1h5.6c1.6,0,2.3-0.9,2.3-2.5c0-1.7-0.8-2.5-2.3-2.5h-5.6v-2.1h5.6c2.3,0,4.2,1.2,4.2,4.6
		C446.9,151.6,445,152.8,442.7,152.8"/>
	<path class="st0" d="M445.3,142h-2.4c1.4-0.9,2.1-2,2.1-4.5c0-2-0.5-2.9-1.4-2.9c-0.6,0-1,0.4-1,1.4c0,1,0.4,1.9,0.4,3.1
		c0,2.1-1.3,3.2-2.8,3.2c-2.1,0-3.3-1.7-3.3-4.8c0-2.7,1-3.9,1.4-4.2h2.1c-0.9,0.8-1.7,1.7-1.7,4.2c0,1.8,0.6,2.8,1.4,2.8
		c0.6,0,1-0.3,1-1.5c0-1-0.4-1.8-0.4-3c0-2.2,1.2-3.2,2.7-3.2c2.2,0,3.3,1.8,3.3,5C446.9,140.2,446,141.4,445.3,142"/>
	<path class="st0" d="M446.7,132.5l-9.6-3.8v-3.2l9.6-4v2.2l-2.1,0.8v5.1l2.1,0.8V132.5z M442.8,128.8v-3.7l-4.5,1.9L442.8,128.8z"
		/>
</g>
</svg>
