<?xml version="1.0" encoding="utf-8"?>
<!-- Generator: Adobe Illustrator 25.0.0, SVG Export Plug-In . SVG Version: 6.00 Build 0)  -->
<svg version="1.1" id="Layer_1" xmlns="http://www.w3.org/2000/svg" xmlns:xlink="http://www.w3.org/1999/xlink" x="0px" y="0px"
	 viewBox="0 0 800 800" style="enable-background:new 0 0 800 800;" xml:space="preserve">
<style type="text/css">
	.st0{fill:#FFFFFF;}
</style>
<path class="st0" d="M400,25C179,25,0,193,0,400s179,375,400,375c234.5,0,52-141.5,139.5-227.5c38-37.5,81.5-43.5,122-43.5
	c18.5,0,36.5,1.5,53,1.5c49.5,0,86-11.5,86-105C800,193,621,25,400,25z M732.5,441c-2.5,0.5-8,1-18.5,1c-7,0-14.5,0-22.5-0.5
	c-9.5,0-19.5-0.5-30.5-0.5c-44.5,0-109.5,6.5-166,61.5c-58.5,58-45,130-37,173.5c1.5,9,4,22,4.5,30c-8,2.5-26,6.5-63,6.5
	C213.5,712.5,62,572.5,62,400S214,87.5,400,87.5s337.5,140,337.5,312.5C737.5,425,734.5,437,732.5,441z"/>
<path class="st0" d="M295,473.5c-51.5,0-93,40-93,89.5s42,89.5,93,89.5s93-40,93-89.5S346,473.5,295,473.5z M295,591
	c-17.5,0-32-12.5-32-28c0-15.5,14.5-28,32-28s32,12.5,32,28C327,578.5,312.5,591,295,591z M285,361.5c0-49.5-42-89.5-93-89.5
	s-93,40-93,89.5s42,89.5,93,89.5S285,411,285,361.5z M192,389.5c-17.5,0-32-12.5-32-28s14.5-28,32-28s32,12.5,32,28
	S209.5,389.5,192,389.5z M368.5,125c-51.5,0-93,40-93,89.5s42,89.5,93,89.5s93-40,93-89.5S419.5,125,368.5,125z M368.5,242.5
	c-17.5,0-32-12.5-32-28s14.5-28,32-28s32,12.5,32,28S386,242.5,368.5,242.5L368.5,242.5z M492,308c0,49.5,42,89.5,93,89.5
	c51,0,93-40,93-89.5s-42-89.5-93-89.5C534,218.5,492,258.5,492,308z M617,308c0,15.5-14.5,28-32,28s-32-12.5-32-28s14.5-28,32-28
	S617,292.5,617,308z"/>
</svg>
