<?xml version="1.0" encoding="utf-8"?>
<!-- Generator: Adobe Illustrator 25.0.0, SVG Export Plug-In . SVG Version: 6.00 Build 0)  -->
<svg version="1.1" id="Layer_1" xmlns="http://www.w3.org/2000/svg" xmlns:xlink="http://www.w3.org/1999/xlink" x="0px" y="0px"
	 viewBox="0 0 115.2 115.2" style="enable-background:new 0 0 115.2 115.2;" xml:space="preserve">
<style type="text/css">
	.st0{fill:#FFFFFF;stroke:#FFFFFF;stroke-width:3;stroke-miterlimit:10;}
	.st1{fill:none;}
</style>
<path id="flow--chart--detail_1_" class="st0" d="M110.4,112.7L70.9,73.2c-7.2,6.8-17.2,11.1-28,11.1C20.6,84.3,2.3,66,2.3,43.4
	S20.6,2.4,43.2,2.4c14,0,26.6,7.2,33.8,18h34.5v2.5H78.8c1.4,2.5,2.5,5.4,3.6,8.3h29.1v2.5H82.7c0.7,2.5,1.1,5.4,1.1,8.3h27.6v2.5
	H84.2c0,2.9-0.4,5.4-1.1,8.3h28.7v2.5H82.7c-1.8,6.1-5,11.5-9.3,15.8l39.5,39.5L110.4,112.7z M7,55.6c5,15.1,19.4,26.2,36.3,26.2
	c6.5,0,12.9-1.8,18.3-4.7h-3.9c-0.7,0-1.4-0.7-1.4-1.4v-9.3H39.6c-0.7,0-1.4-0.7-1.4-1.4V44.8H23.1v9.3c0,0.7-0.7,1.4-1.4,1.4H7z
	 M59,74.2h6.5c6.5-4.7,11.5-11.1,14-19H59L59,74.2L59,74.2z M41.1,63.5h15.4v-9.3c0-0.7,0.7-1.4,1.4-1.4h22.6
	c0.7-2.9,1.1-6.1,1.1-9.3c0-3.2-0.4-6.5-1.1-9.3h-23c-0.7,0-1.4-0.7-1.4-1.4v-9.3H40.7C41.1,23.3,41.1,63.5,41.1,63.5z M6.3,52.7h14
	V34h-14c-0.7,2.9-1.1,6.1-1.1,9.3C5.2,46.6,5.5,49.8,6.3,52.7z M23.1,41.9h15.4V21.8c0-0.7,0.7-1.4,1.4-1.4h16.5V11
	c0-0.7,0.7-1.4,1.4-1.4h3.9c-5.4-2.9-11.5-4.7-18.3-4.7c-16.9,0-31.2,11.1-36.3,26.2h14.4c0.7,0,1.4,0.7,1.4,1.4V41.9L23.1,41.9z
	 M59,31.2h20.5c-2.5-7.5-7.5-14.4-14-19H59V31.2L59,31.2z"/>
<rect id="_Transparent_Rectangle" x="41.6" y="41.6" class="st1" width="32" height="32"/>
</svg>
