<?xml version="1.0" encoding="utf-8"?>
<!-- Generator: Adobe Illustrator 25.0.0, SVG Export Plug-In . SVG Version: 6.00 Build 0)  -->
<svg version="1.1" id="Layer_1" xmlns="http://www.w3.org/2000/svg" xmlns:xlink="http://www.w3.org/1999/xlink" x="0px" y="0px"
	 viewBox="0 0 800 800" style="enable-background:new 0 0 800 800;" xml:space="preserve">
<style type="text/css">
	.st0{fill:#FFFFFF;}
</style>
<path class="st0" d="M25.8,18.8v236.3l85.8,276.7c-0.4,0.1-0.8,0.3-1.2,0.4l141.1,74.6l-50.3,62.6l45,59.4l140,43.7h177.9
	l-307.5-58.5c3.8-6,7.1-12.4,9.9-19.1l509.3,28.3v-77.6l-502.5,27.1c1.5-7.4,2.3-15,2.4-22.9l500.1-94.5V476L274.6,631
	c-1.1-7.9-2.9-15.5-5.4-22.8l506.7-266.4V239.6L261.5,590.3c-3.5-6.7-7.7-12.9-12.3-18.8L775.9,98.2V18.8l0,0h-63l-480.8,535
	c-5.8-4.9-12.2-9.3-18.9-13.1L569.7,18.8h-104L195.7,532.6c-5.2-1.9-10.6-3.5-16.1-4.7L337.9,18.8H263l-95.3,507
	c-4.8-0.6-9.6-0.9-14.5-0.9L180,18.8h-70.3l27.8,507c-5.3,0.6-10.5,1.6-15.5,2.9L25.8,18.8L25.8,18.8z M61.2,565.4
	c-19.7,21.8-31.7,50.8-31.7,82.7c0,68.2,55,123.2,123.2,123.2c30,0,57.4-10.6,78.7-28.3l-85-62.2l46-50.7L61.2,565.4L61.2,565.4z"/>
</svg>
